<svg width="32" height="32" viewBox="0 0 32 32" fill="#000" xmlns="http://www.w3.org/2000/svg">
<g>
<path d="M29.5501 22.0918H11.8027C10.906 22.0918 10.0798 21.3372 9.99878 20.4441L9.95386 19.9502H25.9783C27.8347 19.9502 29.4819 18.446 29.6499 16.5972L30.4734 7.53906C30.5581 6.6084 30.2673 5.72681 29.655 5.05615C29.0427 4.38574 28.1909 4.0166 27.2564 4.0166H8.50537L8.44483 3.35278C8.27686 1.50415 6.66895 0 4.86084 0H2.4375C1.91968 0 1.5 0.419678 1.5 0.9375C1.5 1.45532 1.91968 1.875 2.4375 1.875H4.86084C5.71021 1.875 6.49658 2.62939 6.57764 3.52246L6.71655 5.04883V5.05054L8.13135 20.614C8.29956 22.4626 9.94653 23.9668 11.8027 23.9668H29.5501C30.0679 23.9668 30.4876 23.5469 30.4876 23.0293C30.4876 22.5115 30.0679 22.0918 29.5501 22.0918ZM27.2564 5.8916C27.6577 5.8916 28.0178 6.04395 28.2705 6.3208C28.5232 6.59741 28.6423 6.96997 28.6062 7.36938L27.7825 16.4275C27.7014 17.3206 26.8752 18.0752 25.9783 18.0752H9.7832L8.67578 5.8916H27.2564Z" />
<path d="M25.4463 26.1082C23.8218 26.1082 22.5002 27.4299 22.5002 29.0542C22.5002 30.6785 23.8218 32 25.4463 32C27.0706 32 28.3921 30.6785 28.3921 29.0542C28.3921 27.4299 27.0706 26.1082 25.4463 26.1082ZM25.4463 30.125C24.8557 30.125 24.3752 29.6448 24.3752 29.0542C24.3752 28.4639 24.8557 27.9832 25.4463 27.9832C26.0366 27.9832 26.5171 28.4639 26.5171 29.0542C26.5171 29.6448 26.0366 30.125 25.4463 30.125Z"/>
<path d="M13.3962 26.1082C11.772 26.1082 10.4504 27.4299 10.4504 29.0542C10.4504 30.6785 11.772 32 13.3962 32C15.0205 32 16.342 30.6785 16.342 29.0542C16.342 27.4299 15.0205 26.1082 13.3962 26.1082ZM13.3962 30.125C12.8057 30.125 12.3254 29.6448 12.3254 29.0542C12.3254 28.4639 12.8057 27.9832 13.3962 27.9832C13.9866 27.9832 14.467 28.4639 14.467 29.0542C14.467 29.6448 13.9866 30.125 13.3962 30.125Z"/>
</g>
</svg>
