<svg width="77" height="75" viewBox="0 0 77 75" fill="none" xmlns="http://www.w3.org/2000/svg">
<path d="M73.8331 35.9658C72.4332 35.9658 71.2989 37.1001 71.2989 38.5C71.2989 41.8194 70.8083 45.0649 69.8625 48.1552C68.564 46.955 66.8715 46.2357 65.0331 46.1525C60.0684 45.9278 55.342 44.6189 50.969 42.2597C54.1428 41.1433 57.1504 39.6049 59.9576 37.6583C64.9202 34.2172 67.8828 28.5322 67.8828 22.4505C67.8828 16.3688 64.9202 10.6838 59.9579 7.24274C53.588 2.8255 46.1196 0.490341 38.3593 0.487976L38.3549 0.48764H38.2522C38.217 0.48764 38.1829 0.490676 38.1481 0.491352C31.172 0.529196 24.3608 2.47646 18.4373 6.13379C17.2465 6.86938 16.8772 8.43077 17.6125 9.6215C18.0916 10.3976 18.9214 10.8247 19.7712 10.8247C20.2254 10.8247 20.6852 10.7027 21.1002 10.4466C24.1533 8.5612 27.4802 7.20457 30.947 6.4041C30.5645 8.1216 30.7888 9.93742 31.6322 11.564C33.9201 15.9755 35.1497 20.7232 35.2929 25.6902C32.7395 23.5004 29.9029 21.6646 26.8136 20.2066C21.3519 17.6298 14.9468 17.9062 9.68048 20.9476C4.41378 23.9883 0.971683 29.3965 0.472618 35.4144C0.388145 36.4331 0.347262 37.4502 0.344221 38.4642C0.344221 38.4763 0.342529 38.4882 0.342529 38.5007C0.342529 38.6284 0.347937 38.7558 0.349289 38.8838C0.402 45.4146 2.12896 51.793 5.43353 57.5172L5.47577 57.5898C5.57206 57.7557 5.67546 57.9152 5.78257 58.0716C5.94847 58.3467 6.1137 58.6224 6.2867 58.8941C10.0691 64.822 15.4003 69.5852 21.704 72.6688C22.0625 72.8442 22.4419 72.9273 22.8156 72.9273C23.7529 72.9273 24.6541 72.405 25.094 71.5062C25.709 70.2489 25.1883 68.7311 23.931 68.1161C20.2541 66.3175 17.0059 63.8617 14.294 60.939C15.9538 60.4058 17.3993 59.3144 18.3771 57.7848C21.0535 53.5976 24.5504 50.1589 28.7804 47.5514C28.1604 50.858 27.9891 54.2318 28.2712 57.6364C28.7703 63.6546 32.2124 69.0625 37.4791 72.1035C40.3511 73.7616 43.5608 74.5979 46.7717 74.5979C49.4495 74.5979 52.1287 74.016 54.6118 72.8445C60.4357 70.0961 65.3905 65.9695 69.1283 60.7998C69.307 60.5545 69.4827 60.3071 69.6554 60.0584C69.6939 60.002 69.7331 59.9462 69.7713 59.8898C74.0588 53.6277 76.3672 46.2384 76.3672 38.5C76.3672 37.1001 75.2329 35.9658 73.8331 35.9658ZM66.9154 54.908L66.8783 54.9725C66.4779 55.6659 66.0531 56.3403 65.6078 56.9981C65.5527 57.0786 65.4976 57.1593 65.4419 57.2394C65.329 57.4029 65.2128 57.5631 65.0972 57.7243C64.064 59.1536 62.9108 60.5119 61.6386 61.7844C61.5768 61.8462 61.519 61.9104 61.4649 61.9766C58.8551 64.546 55.8205 66.6703 52.4493 68.2607C48.4318 70.1566 43.8993 69.9576 40.0136 67.7144C36.1282 65.4711 33.6896 61.6455 33.3227 57.2185C32.9368 52.5616 33.5305 47.9704 35.0872 43.5717C35.4203 42.6304 35.1696 41.5812 34.4468 40.8919C33.9664 40.4341 33.3372 40.1922 32.6976 40.1922C32.3749 40.1922 32.0499 40.254 31.7397 40.3804C30.1438 41.0325 28.5804 41.7988 27.0923 42.6581C21.8459 45.6869 17.356 49.9737 14.1075 55.0549C13.6206 55.8165 12.7941 56.2636 11.8957 56.2406C11.5541 56.2335 10.7884 56.1365 10.1873 55.4874C7.1838 50.5167 5.47441 44.7685 5.41663 38.8115C5.40886 37.8212 5.44062 36.8278 5.52307 35.8323C5.89002 31.405 8.32891 27.5794 12.214 25.3365C16.0994 23.0929 20.6319 22.8942 24.6497 24.7897C28.876 26.7843 32.5553 29.5942 35.5855 33.141C36.2339 33.9003 37.2682 34.2084 38.2262 33.9263C39.1844 33.6448 39.8879 32.8272 40.0231 31.8378C40.2562 30.1308 40.3745 28.3937 40.3745 26.6742C40.3745 20.6161 38.907 14.5844 36.1306 9.23056C35.7143 8.42773 35.744 7.49008 36.2096 6.72172C36.4198 6.37471 37.0385 5.57255 38.2329 5.55803C38.2721 5.55803 38.3113 5.556 38.3505 5.556C45.0765 5.55668 51.5495 7.57996 57.0693 11.4076C60.7202 13.9391 62.8141 17.964 62.8141 22.4505C62.8141 26.937 60.7202 30.9617 57.0696 33.4935C53.2295 36.156 48.9566 37.9374 44.3697 38.7886C43.3878 38.9707 42.6045 39.712 42.369 40.6824C42.1335 41.6529 42.49 42.6709 43.279 43.2828C44.6407 44.3384 46.0862 45.3095 47.5753 46.1691C52.821 49.1979 58.7787 50.9431 64.804 51.2158C65.7068 51.2567 66.5042 51.7514 66.9367 52.5387C67.1334 52.8972 67.5257 53.8443 66.9154 54.908Z" fill="url(#paint0_linear_201_1771)"/>
<path d="M38.3478 41.0342C39.7474 41.0342 40.882 39.8996 40.882 38.5C40.882 37.1004 39.7474 35.9658 38.3478 35.9658C36.9482 35.9658 35.8136 37.1004 35.8136 38.5C35.8136 39.8996 36.9482 41.0342 38.3478 41.0342Z" fill="url(#paint1_linear_201_1771)"/>
<defs>
<linearGradient id="paint0_linear_201_1771" x1="0.342529" y1="38.2165" x2="76.3672" y2="38.2165" gradientUnits="userSpaceOnUse">
<stop stop-color="#9945B7"/>
<stop offset="1" stop-color="#313681"/>
</linearGradient>
<linearGradient id="paint1_linear_201_1771" x1="0.342529" y1="38.2165" x2="76.3672" y2="38.2165" gradientUnits="userSpaceOnUse">
<stop stop-color="#9945B7"/>
<stop offset="1" stop-color="#313681"/>
</linearGradient>
</defs>
</svg>
