<svg width="173" height="127" viewBox="0 0 173 127" fill="none" xmlns="http://www.w3.org/2000/svg">
<path d="M162.019 0.145508H10.9814C4.92645 0.145508 0 5.07162 0 11.127V115.873C0 121.928 4.92645 126.854 10.9814 126.854C12.381 126.854 13.5156 125.72 13.5156 124.32C13.5156 122.92 12.381 121.786 10.9814 121.786C7.72114 121.786 5.06836 119.133 5.06836 115.873V11.127C5.06836 7.86665 7.72114 5.21387 10.9814 5.21387H162.019C165.279 5.21387 167.932 7.86665 167.932 11.127V115.873C167.932 119.133 165.279 121.786 162.019 121.786H21.1188C19.7193 121.786 18.5847 122.92 18.5847 124.32C18.5847 125.72 19.7193 126.854 21.1188 126.854H162.019C168.074 126.854 173 121.928 173 115.873V11.127C173 5.07162 168.074 0.145508 162.019 0.145508Z" fill="url(#paint0_linear_201_1770)"/>
<path d="M63.3545 15.3506C36.8051 15.3506 15.2051 36.9502 15.2051 63.5C15.2051 90.0498 36.8047 111.649 63.3545 111.649C89.9042 111.649 111.504 90.0498 111.504 63.5C111.504 36.9502 89.9039 15.3506 63.3545 15.3506ZM63.3545 106.581C39.5994 106.581 20.2734 87.2551 20.2734 63.5C20.2734 39.7449 39.5994 20.4189 63.3545 20.4189C87.1096 20.4189 106.436 39.7449 106.436 63.5C106.436 87.2551 87.1096 106.581 63.3545 106.581Z" fill="url(#paint1_linear_201_1770)"/>
<path d="M157.24 29.8714L156.033 29.175L156.729 27.9681C157.428 26.7557 157.012 25.2058 155.8 24.5068C154.588 23.8077 153.038 24.2233 152.339 25.4359L150.964 27.8198L150.748 27.1369C150.326 25.8026 148.904 25.0629 147.568 25.4839C146.233 25.9056 145.493 27.3295 145.915 28.6638L146.17 29.4697L142.246 30.7094L142.281 26.429H143.097C144.497 26.429 145.631 25.2947 145.631 23.8948C145.631 22.4949 144.497 21.3606 143.097 21.3606H142.678L144.362 19.6766C145.352 18.6866 145.352 17.0823 144.362 16.0926C143.372 15.1033 141.768 15.1033 140.778 16.0926L139.793 17.0782L138.808 16.0926C137.818 15.1033 136.214 15.1033 135.224 16.0926C134.234 17.0826 134.234 18.6869 135.224 19.6766L136.908 21.3606H136.339C134.939 21.3606 133.805 22.4949 133.805 23.8948C133.805 25.2947 134.939 26.429 136.339 26.429H137.212L137.178 30.6685L132.959 29.2599L133.189 28.5699C133.632 27.242 132.915 25.8066 131.588 25.3633C130.26 24.921 128.825 25.637 128.382 26.9642L128.278 27.2751L127.097 25.2281C126.398 24.0151 124.847 23.5998 123.636 24.2989C122.424 24.9984 122.008 26.5479 122.707 27.7603L123.403 28.9676L122.196 29.664C120.983 30.3637 120.567 31.9133 121.266 33.126C121.736 33.9396 122.588 34.3944 123.464 34.3944C123.893 34.3944 124.329 34.2853 124.728 34.0552L126.32 33.1365L126.241 33.3747C125.798 34.7026 126.515 36.138 127.842 36.5813C128.109 36.6701 128.379 36.7124 128.645 36.7124C129.706 36.7124 130.694 36.0417 131.049 34.9803L131.353 34.068L135.573 35.4767L133.002 38.9566L132.305 38.4349C131.186 37.5949 129.597 37.8223 128.758 38.9421C127.918 40.0615 128.145 41.6503 129.265 42.4896L129.822 42.9076L127.198 43.3844C125.82 43.6344 124.907 44.9535 125.157 46.3304C125.407 47.7077 126.726 48.6237 128.103 48.371L129.475 48.1223L129.724 49.4938C129.946 50.7179 131.012 51.5755 132.214 51.5755C132.364 51.5755 132.517 51.5623 132.67 51.5343C134.047 51.2846 134.96 49.9651 134.71 48.5882L134.287 46.2554L134.672 46.544C135.128 46.8859 135.661 47.0508 136.19 47.0508C136.96 47.0508 137.722 46.7008 138.219 46.0368C139.059 44.9174 138.832 43.3286 137.712 42.4893L137.057 41.9977L139.649 38.489L142.154 41.996L141.49 42.4663C140.347 43.2749 140.076 44.8559 140.885 45.9986C141.379 46.6964 142.161 47.0694 142.956 47.0694C143.462 47.0694 143.973 46.918 144.417 46.6034L144.747 46.37L144.345 48.5879C144.094 49.9648 145.008 51.2839 146.385 51.5339C146.538 51.562 146.69 51.5752 146.841 51.5752C148.042 51.5752 149.109 50.7173 149.331 49.4934L149.58 48.1219L150.952 48.3706C152.328 48.6227 153.648 47.7077 153.898 46.3301C154.148 44.9532 153.234 43.6341 151.857 43.384L149.557 42.9664L149.934 42.7001C151.076 41.8916 151.347 40.3106 150.538 39.1678C149.73 38.0258 148.149 37.7541 147.006 38.563L146.291 39.0685L143.773 35.5429L147.697 34.3029L147.951 35.1081C148.293 36.1886 149.291 36.8793 150.367 36.8793C150.619 36.8793 150.877 36.8411 151.131 36.7607C152.466 36.339 153.206 34.9151 152.784 33.5808L152.618 33.0571L154.708 34.262C155.107 34.4921 155.542 34.6012 155.971 34.6012C156.847 34.6012 157.7 34.1464 158.169 33.3328C158.868 32.1204 158.452 30.5705 157.24 29.8714Z" fill="url(#paint2_linear_201_1770)"/>
<path d="M135.156 66.0315H120.289C118.89 66.0315 117.755 67.1661 117.755 68.5657C117.755 69.9655 118.889 71.0998 120.289 71.0998H135.156C136.556 71.0998 137.69 69.9655 137.69 68.5657C137.69 67.1658 136.556 66.0315 135.156 66.0315Z" fill="url(#paint3_linear_201_1770)"/>
<path d="M160.161 66.0315H145.294C143.894 66.0315 142.759 67.1658 142.759 68.5657C142.759 69.9655 143.894 71.0998 145.294 71.0998H160.161C161.561 71.0998 162.695 69.9655 162.695 68.5657C162.695 67.1658 161.561 66.0315 160.161 66.0315Z" fill="url(#paint4_linear_201_1770)"/>
<path d="M135.156 76.1689H120.289C118.889 76.1689 117.755 77.3032 117.755 78.703C117.755 80.1029 118.89 81.2372 120.289 81.2372H135.156C136.556 81.2372 137.69 80.1029 137.69 78.703C137.69 77.3032 136.556 76.1689 135.156 76.1689Z" fill="url(#paint5_linear_201_1770)"/>
<path d="M160.161 76.1689H145.294C143.894 76.1689 142.759 77.3032 142.759 78.703C142.759 80.1029 143.894 81.2372 145.294 81.2372H160.161C161.561 81.2372 162.695 80.1029 162.695 78.703C162.695 77.3032 161.561 76.1689 160.161 76.1689Z" fill="url(#paint6_linear_201_1770)"/>
<path d="M135.156 86.3063H120.289C118.889 86.3063 117.755 87.4406 117.755 88.8405C117.755 90.2403 118.89 91.3746 120.289 91.3746H135.156C136.556 91.3746 137.69 90.2403 137.69 88.8405C137.69 87.4406 136.556 86.3063 135.156 86.3063Z" fill="url(#paint7_linear_201_1770)"/>
<path d="M160.161 86.3063H145.294C143.894 86.3063 142.759 87.4406 142.759 88.8405C142.759 90.2403 143.894 91.3746 145.294 91.3746H160.161C161.561 91.3746 162.695 90.2403 162.695 88.8405C162.695 87.4406 161.561 86.3063 160.161 86.3063Z" fill="url(#paint8_linear_201_1770)"/>
<path d="M135.156 96.4437H120.289C118.889 96.4437 117.755 97.578 117.755 98.9778C117.755 100.378 118.89 101.512 120.289 101.512H135.156C136.556 101.512 137.69 100.378 137.69 98.9778C137.69 97.578 136.556 96.4437 135.156 96.4437Z" fill="url(#paint9_linear_201_1770)"/>
<path d="M160.161 96.4437H145.294C143.894 96.4437 142.759 97.578 142.759 98.9778C142.759 100.378 143.894 101.512 145.294 101.512H160.161C161.561 101.512 162.695 100.378 162.695 98.9778C162.695 97.578 161.561 96.4437 160.161 96.4437Z" fill="url(#paint10_linear_201_1770)"/>
<path d="M135.156 106.581H120.289C118.889 106.581 117.755 107.715 117.755 109.115C117.755 110.515 118.89 111.649 120.289 111.649H135.156C136.556 111.649 137.69 110.515 137.69 109.115C137.69 107.715 136.556 106.581 135.156 106.581Z" fill="url(#paint11_linear_201_1770)"/>
<path d="M160.161 106.581H145.294C143.894 106.581 142.759 107.715 142.759 109.115C142.759 110.515 143.894 111.649 145.294 111.649H160.161C161.561 111.649 162.695 110.515 162.695 109.115C162.695 107.715 161.561 106.581 160.161 106.581Z" fill="url(#paint12_linear_201_1770)"/>
<defs>
<linearGradient id="paint0_linear_201_1770" x1="0" y1="64.6519" x2="173" y2="64.6519" gradientUnits="userSpaceOnUse">
<stop stop-color="#9945B7"/>
<stop offset="1" stop-color="#313681"/>
</linearGradient>
<linearGradient id="paint1_linear_201_1770" x1="0" y1="64.6519" x2="173" y2="64.6519" gradientUnits="userSpaceOnUse">
<stop stop-color="#9945B7"/>
<stop offset="1" stop-color="#313681"/>
</linearGradient>
<linearGradient id="paint2_linear_201_1770" x1="0" y1="64.6519" x2="173" y2="64.6519" gradientUnits="userSpaceOnUse">
<stop stop-color="#9945B7"/>
<stop offset="1" stop-color="#313681"/>
</linearGradient>
<linearGradient id="paint3_linear_201_1770" x1="0" y1="64.6519" x2="173" y2="64.6519" gradientUnits="userSpaceOnUse">
<stop stop-color="#9945B7"/>
<stop offset="1" stop-color="#313681"/>
</linearGradient>
<linearGradient id="paint4_linear_201_1770" x1="0" y1="64.6519" x2="173" y2="64.6519" gradientUnits="userSpaceOnUse">
<stop stop-color="#9945B7"/>
<stop offset="1" stop-color="#313681"/>
</linearGradient>
<linearGradient id="paint5_linear_201_1770" x1="0" y1="64.6519" x2="173" y2="64.6519" gradientUnits="userSpaceOnUse">
<stop stop-color="#9945B7"/>
<stop offset="1" stop-color="#313681"/>
</linearGradient>
<linearGradient id="paint6_linear_201_1770" x1="0" y1="64.6519" x2="173" y2="64.6519" gradientUnits="userSpaceOnUse">
<stop stop-color="#9945B7"/>
<stop offset="1" stop-color="#313681"/>
</linearGradient>
<linearGradient id="paint7_linear_201_1770" x1="0" y1="64.6519" x2="173" y2="64.6519" gradientUnits="userSpaceOnUse">
<stop stop-color="#9945B7"/>
<stop offset="1" stop-color="#313681"/>
</linearGradient>
<linearGradient id="paint8_linear_201_1770" x1="0" y1="64.6519" x2="173" y2="64.6519" gradientUnits="userSpaceOnUse">
<stop stop-color="#9945B7"/>
<stop offset="1" stop-color="#313681"/>
</linearGradient>
<linearGradient id="paint9_linear_201_1770" x1="0" y1="64.6519" x2="173" y2="64.6519" gradientUnits="userSpaceOnUse">
<stop stop-color="#9945B7"/>
<stop offset="1" stop-color="#313681"/>
</linearGradient>
<linearGradient id="paint10_linear_201_1770" x1="0" y1="64.6519" x2="173" y2="64.6519" gradientUnits="userSpaceOnUse">
<stop stop-color="#9945B7"/>
<stop offset="1" stop-color="#313681"/>
</linearGradient>
<linearGradient id="paint11_linear_201_1770" x1="0" y1="64.6519" x2="173" y2="64.6519" gradientUnits="userSpaceOnUse">
<stop stop-color="#9945B7"/>
<stop offset="1" stop-color="#313681"/>
</linearGradient>
<linearGradient id="paint12_linear_201_1770" x1="0" y1="64.6519" x2="173" y2="64.6519" gradientUnits="userSpaceOnUse">
<stop stop-color="#9945B7"/>
<stop offset="1" stop-color="#313681"/>
</linearGradient>
</defs>
</svg>
