<svg width="31" height="30" viewBox="0 0 31 30" fill="none" xmlns="http://www.w3.org/2000/svg">
<g clip-path="url(#clip0_70_761)">
<path d="M29.9011 12.6665L25.8164 9.06529V4.94118C25.8164 4.45412 25.4211 4.05882 24.9341 4.05882H20.137L15.7835 0.220588C15.45 -0.0735294 14.95 -0.0735294 14.6164 0.220588L10.2629 4.05882H5.46583C4.97877 4.05882 4.58348 4.45412 4.58348 4.94118V9.06529L0.498775 12.6665C0.317834 12.8465 0.199951 13.0296 0.199951 13.3282V29.1176C0.199951 29.5947 0.587304 30 1.0823 30H29.3176C29.8115 30 30.2 29.5978 30.2 29.1176V13.3282C30.2 13.0392 30.0804 12.8448 29.9011 12.6665ZM28.4352 27.0718L20.8847 19.9465C21.0964 19.8068 28.3102 15.0495 28.4352 14.9671V27.0718ZM2.53172 13.2271C3.60554 12.2801 3.13648 12.6936 4.58348 11.4182V14.58C3.41966 13.8131 3.15389 13.6371 2.53172 13.2271ZM6.34819 5.82353H24.0517V15.7441C17.068 20.3502 18.1672 19.6252 15.2 21.5818C12.1674 19.5822 8.29695 17.0294 6.34819 15.7441C6.34819 11.9054 6.34819 9.17541 6.34819 5.82353ZM15.2 2.05882L17.4688 4.05882H12.9311L15.2 2.05882ZM27.8682 13.2271C27.2559 13.6306 26.9598 13.8265 25.8164 14.58C25.8164 14.2082 25.8164 11.7928 25.8164 11.4182C27.2634 12.6936 26.7944 12.2802 27.8682 13.2271ZM1.96466 14.9671C1.96607 14.968 9.3246 19.8207 9.51525 19.9465L1.96466 27.0718V14.9671ZM11.0288 20.9447L14.7141 23.3753C15.0099 23.5698 15.39 23.5698 15.6858 23.3753L19.3711 20.9447L27.097 28.2353H3.30289L11.0288 20.9447Z" fill="white"/>
<path d="M11.1664 11.0347H19.2335C19.7205 11.0347 20.1158 10.6394 20.1158 10.1524C20.1158 9.66473 19.7205 9.27002 19.2335 9.27002H11.1664C10.6794 9.27002 10.2841 9.66473 10.2841 10.1524C10.2841 10.6394 10.6794 11.0347 11.1664 11.0347Z" fill="white"/>
<path d="M11.1664 14.99H19.2335C19.7237 14.99 20.1158 14.5915 20.1158 14.1077C20.1158 13.6172 19.7177 13.2253 19.2335 13.2253H11.1664C10.6816 13.2253 10.2841 13.6178 10.2841 14.1077C10.2841 14.5916 10.6763 14.99 11.1664 14.99Z" fill="white"/>
</g>
<defs>
<clipPath id="clip0_70_761">
<rect width="30" height="30" fill="white" transform="translate(0.199951)"/>
</clipPath>
</defs>
</svg>
