<svg width="31" height="31" viewBox="0 0 31 31" fill="none" xmlns="http://www.w3.org/2000/svg">
<g clip-path="url(#clip0_27_165)">
<path d="M29.9011 12.729L25.8164 9.12779V5.00368C25.8164 4.51662 25.4211 4.12132 24.9341 4.12132H20.137L15.7835 0.283088C15.45 -0.0110294 14.95 -0.0110294 14.6164 0.283088L10.2629 4.12132H5.46583C4.97877 4.12132 4.58348 4.51662 4.58348 5.00368V9.12779L0.498775 12.729C0.317834 12.909 0.199951 13.0921 0.199951 13.3907V29.1801C0.199951 29.6572 0.587304 30.0625 1.0823 30.0625H29.3176C29.8115 30.0625 30.2 29.6603 30.2 29.1801V13.3907C30.2 13.1017 30.0804 12.9073 29.9011 12.729V12.729ZM28.4352 27.1343L20.8847 20.009C21.0964 19.8693 28.3102 15.112 28.4352 15.0296V27.1343ZM2.53172 13.2896C3.60554 12.3426 3.13648 12.7561 4.58348 11.4807V14.6425C3.41966 13.8756 3.15389 13.6996 2.53172 13.2896V13.2896ZM6.34819 5.88603H24.0517V15.8066C17.068 20.4127 18.1672 19.6877 15.2 21.6443C12.1674 19.6447 8.29695 17.0919 6.34819 15.8066C6.34819 11.9679 6.34819 9.23791 6.34819 5.88603V5.88603ZM15.2 2.12132L17.4688 4.12132H12.9311L15.2 2.12132ZM27.8682 13.2896C27.2559 13.6931 26.9598 13.889 25.8164 14.6425C25.8164 14.2707 25.8164 11.8553 25.8164 11.4807C27.2634 12.7561 26.7944 12.3427 27.8682 13.2896ZM1.96466 15.0296C1.96607 15.0305 9.3246 19.8832 9.51525 20.009L1.96466 27.1343V15.0296ZM11.0288 21.0072L14.7141 23.4378C15.0099 23.6323 15.39 23.6323 15.6858 23.4378L19.3711 21.0072L27.097 28.2978H3.30289L11.0288 21.0072Z" fill="url(#paint0_linear_27_165)"/>
<path d="M11.1664 11.0972H19.2335C19.7205 11.0972 20.1158 10.7019 20.1158 10.2149C20.1158 9.72723 19.7205 9.33252 19.2335 9.33252H11.1664C10.6794 9.33252 10.2841 9.72723 10.2841 10.2149C10.2841 10.7019 10.6794 11.0972 11.1664 11.0972Z" fill="url(#paint1_linear_27_165)"/>
<path d="M11.1664 15.0525H19.2335C19.7237 15.0525 20.1158 14.6539 20.1158 14.1701C20.1158 13.6796 19.7177 13.2878 19.2335 13.2878H11.1664C10.6816 13.2878 10.2841 13.6802 10.2841 14.1701C10.2841 14.654 10.6763 15.0525 11.1664 15.0525Z" fill="url(#paint2_linear_27_165)"/>
</g>
<defs>
<linearGradient id="paint0_linear_27_165" x1="0.199951" y1="15.3352" x2="30.2" y2="15.3352" gradientUnits="userSpaceOnUse">
<stop stop-color="#9945B7"/>
<stop offset="1" stop-color="#313681"/>
</linearGradient>
<linearGradient id="paint1_linear_27_165" x1="10.2841" y1="10.2309" x2="20.1158" y2="10.2309" gradientUnits="userSpaceOnUse">
<stop stop-color="#9945B7"/>
<stop offset="1" stop-color="#313681"/>
</linearGradient>
<linearGradient id="paint2_linear_27_165" x1="10.2841" y1="14.1862" x2="20.1158" y2="14.1862" gradientUnits="userSpaceOnUse">
<stop stop-color="#9945B7"/>
<stop offset="1" stop-color="#313681"/>
</linearGradient>
<clipPath id="clip0_27_165">
<rect width="30" height="30" fill="white" transform="translate(0.199951 0.0625)"/>
</clipPath>
</defs>
</svg>
