<svg width="32" height="32" viewBox="0 0 32 32" fill="none" xmlns="http://www.w3.org/2000/svg">
<g clip-path="url(#clip0_201_1288)">
<path d="M29.3313 3.86273C27.7019 2.22256 25.5623 1.31927 23.3068 1.31927C20.3133 1.31927 17.5749 2.94791 16 5.52684C14.4251 2.94791 11.6866 1.31927 8.69317 1.31927C6.3638 1.31927 4.17769 2.27867 2.53776 4.02065C0.917289 5.74199 0.0161257 8.03134 0.000166009 10.4671C-0.024023 14.1647 2.5953 18.6772 7.78533 23.8792C11.5672 27.6698 15.2937 30.3883 15.4505 30.5022C15.6144 30.6212 15.8072 30.6807 16 30.6807C16.1939 30.6807 16.3878 30.6205 16.5521 30.5003C16.7078 30.3864 20.4074 27.6682 24.1752 23.878C29.3431 18.6795 31.9756 14.1715 31.9998 10.4793C32.0162 7.9612 31.0686 5.61138 29.3313 3.86273V3.86273ZM22.8655 22.5426C20.0323 25.3949 17.169 27.6744 15.998 28.5747C14.8208 27.6758 11.9376 25.3953 9.09247 22.5413C4.34732 17.7813 1.85 13.6103 1.87045 10.4793C1.88323 8.51736 2.60391 6.679 3.89951 5.30266C5.18234 3.94004 6.88479 3.18956 8.69323 3.18956C11.5655 3.18956 14.1455 5.13465 15.1132 8.02959C15.2406 8.41107 15.5978 8.66829 16.0001 8.66829C16.4023 8.66829 16.7595 8.41107 16.8871 8.02959C17.8547 5.13465 20.4346 3.18956 23.307 3.18956C25.0606 3.18956 26.729 3.89677 28.0047 5.18084C29.3882 6.57345 30.1428 8.45078 30.1296 10.467C30.109 13.6033 27.5971 17.779 22.8655 22.5426V22.5426Z" fill="url(#paint0_linear_201_1288)"/>
</g>
<defs>
<linearGradient id="paint0_linear_201_1288" x1="0" y1="16.2669" x2="32" y2="16.2669" gradientUnits="userSpaceOnUse">
<stop stop-color="#9945B7"/>
<stop offset="1" stop-color="#313681"/>
</linearGradient>
<clipPath id="clip0_201_1288">
<rect width="32" height="32" fill="white"/>
</clipPath>
</defs>
</svg>
