<svg width="22" height="22" viewBox="0 0 22 22" fill="none" xmlns="http://www.w3.org/2000/svg">
<path fill-rule="evenodd" clip-rule="evenodd" d="M20.0664 0H1.93359C0.86741 0 0 0.86741 0 1.93359V8.42188C0 9.48806 0.86741 10.3555 1.93359 10.3555H20.0664C21.1326 10.3555 22 9.48806 22 8.42188V1.93359C22 0.86741 21.1326 0 20.0664 0ZM18.1328 9.06641H3.86719V7.77734H18.1328V9.06641ZM20.7109 8.42188C20.7109 8.77727 20.4218 9.06641 20.0664 9.06641H19.4219V7.13281C19.4219 6.77686 19.1333 6.48828 18.7773 6.48828H3.22266C2.8667 6.48828 2.57812 6.77686 2.57812 7.13281V9.06641H1.93359C1.5782 9.06641 1.28906 8.77727 1.28906 8.42188V1.93359C1.28906 1.5782 1.5782 1.28906 1.93359 1.28906H20.0664C20.4218 1.28906 20.7109 1.5782 20.7109 1.93359V8.42188ZM13.6211 2.57812H8.42188C8.06592 2.57812 7.77734 2.8667 7.77734 3.22266C7.77734 3.57861 8.06592 3.86719 8.42188 3.86719H13.6211C13.977 3.86719 14.2656 3.57861 14.2656 3.22266C14.2656 2.8667 13.977 2.57812 13.6211 2.57812ZM16.8438 3.22266C16.8438 3.57862 16.5552 3.86719 16.1992 3.86719C15.8433 3.86719 15.5547 3.57862 15.5547 3.22266C15.5547 2.86669 15.8433 2.57812 16.1992 2.57812C16.5552 2.57812 16.8438 2.86669 16.8438 3.22266ZM18.7773 3.86719C19.1333 3.86719 19.4219 3.57862 19.4219 3.22266C19.4219 2.86669 19.1333 2.57812 18.7773 2.57812C18.4214 2.57812 18.1328 2.86669 18.1328 3.22266C18.1328 3.57862 18.4214 3.86719 18.7773 3.86719ZM11.6445 12.2891V18.7773C11.6445 19.1333 11.356 19.4219 11 19.4219C10.644 19.4219 10.3555 19.1333 10.3555 18.7773V12.2891C10.3555 11.9331 10.644 11.6445 11 11.6445C11.356 11.6445 11.6445 11.9331 11.6445 12.2891ZM7.77734 14.9102V12.2891C7.77734 11.9331 7.48877 11.6445 7.13281 11.6445C6.77686 11.6445 6.48828 11.9331 6.48828 12.2891V14.9102C6.48828 18.1087 3.86676 20.7109 0.644531 20.7109C0.288578 20.7109 0 20.9995 0 21.3555C0 21.7114 0.288578 22 0.644531 22C4.57755 22 7.77734 18.8195 7.77734 14.9102ZM15.5117 14.9102C15.5117 18.1087 18.1332 20.7109 21.3555 20.7109C21.7114 20.7109 22 20.9995 22 21.3555C22 21.7114 21.7114 22 21.3555 22C17.4225 22 14.2227 18.8195 14.2227 14.9102V12.2891C14.2227 11.9331 14.5112 11.6445 14.8672 11.6445C15.2231 11.6445 15.5117 11.9331 15.5117 12.2891V14.9102Z" fill="url(#paint0_linear_202_140)"/>
<defs>
<linearGradient id="paint0_linear_202_140" x1="0" y1="11.2" x2="22" y2="11.2" gradientUnits="userSpaceOnUse">
<stop stop-color="#9945B7"/>
<stop offset="1" stop-color="#313681"/>
</linearGradient>
</defs>
</svg>
