<svg width="22" height="22" viewBox="0 0 22 22" fill="none" xmlns="http://www.w3.org/2000/svg">
<path d="M20.0664 0H1.93359C0.867432 0 0 0.867432 0 1.93359V20.0664C0 21.1326 0.867432 22 1.93359 22H20.0664C21.1326 22 22 21.1326 22 20.0664V1.93359C22 0.867432 21.1326 0 20.0664 0ZM1.28906 6.4668H5.17773V10.3555H1.28906V6.4668ZM1.28906 11.6445H5.17773V15.5332H1.28906V11.6445ZM11.6445 10.3555V6.4668H15.5332V10.3555H11.6445ZM15.5332 11.6445V15.5332H11.6445V11.6445H15.5332ZM6.4668 10.3555V6.4668H10.3555V10.3555H6.4668ZM10.3555 11.6445V15.5332H6.4668V11.6445H10.3555ZM6.4668 5.17773V1.28906H10.3555V5.17773H6.4668ZM10.3555 16.8223V20.7109H6.4668V16.8223H10.3555ZM11.6445 16.8223H15.5332V20.7109H11.6445V16.8223ZM11.6445 5.17773V1.28906H15.5332V5.17773H11.6445ZM16.8223 6.4668H20.7109V10.3555H16.8223V6.4668ZM16.8223 11.6445H20.7109V15.5332H16.8223V11.6445ZM20.7109 1.93359V5.17773H16.8223V1.28906H20.0664C20.4217 1.28906 20.7109 1.57826 20.7109 1.93359ZM1.93359 1.28906H5.17773V5.17773H1.28906V1.93359C1.28906 1.57826 1.57826 1.28906 1.93359 1.28906ZM1.28906 20.0664V16.8223H5.17773V20.7109H1.93359C1.57826 20.7109 1.28906 20.4217 1.28906 20.0664ZM20.0664 20.7109H16.8223V16.8223H20.7109V20.0664C20.7109 20.4217 20.4217 20.7109 20.0664 20.7109Z" fill="url(#paint0_linear_202_336)"/>
<defs>
<linearGradient id="paint0_linear_202_336" x1="0" y1="11.2" x2="22" y2="11.2" gradientUnits="userSpaceOnUse">
<stop stop-color="#9945B7"/>
<stop offset="1" stop-color="#313681"/>
</linearGradient>
</defs>
</svg>
