<svg width="22" height="22" viewBox="0 0 22 22" fill="none" xmlns="http://www.w3.org/2000/svg">
<path fill-rule="evenodd" clip-rule="evenodd" d="M17.9036 0H4.09638C1.83764 0 0 1.83764 0 4.09638V17.9037C0 20.1624 1.83764 22 4.09638 22H17.9036C20.1624 22 22 20.1624 22 17.9037V4.09638C22 1.83764 20.1624 0 17.9036 0ZM20.5959 18.7C20.2518 19.8613 19.1751 20.7109 17.9036 20.7109H4.09638C2.82494 20.7109 1.74819 19.8613 1.40408 18.7H20.5959ZM20.7109 17.4167H16.8667V16.8667H20.7109V17.4167ZM15.5833 17.4167V16.8667H11.6417V17.4167H15.5833ZM10.3583 17.4167V16.8667H6.41666V17.4167H10.3583ZM5.13333 17.4167V16.8667H1.28906V17.4167H5.13333ZM5.13333 15.5833H1.28906V15.0333H5.13333V15.5833ZM10.3583 15.5833H6.41666V15.0333H10.3583V15.5833ZM15.5833 15.5833H11.6417V15.0333H15.5833V15.5833ZM16.8667 15.0333V15.5833H20.7109V15.0333H16.8667ZM20.7109 13.75H16.8667H15.5833H11.6417H10.3583H6.41666H5.13333H1.28906V7.7H20.7109V13.75ZM1.28906 4.09638V6.41667H20.7109V4.09638C20.7109 2.54843 19.4516 1.28906 17.9036 1.28906H4.09638C2.54843 1.28906 1.28906 2.54843 1.28906 4.09638ZM15.5833 3.66667H6.41667V4.95H15.5833V3.66667Z" fill="url(#paint0_linear_202_358)"/>
<defs>
<linearGradient id="paint0_linear_202_358" x1="0" y1="11.2" x2="22" y2="11.2" gradientUnits="userSpaceOnUse">
<stop stop-color="#9945B7"/>
<stop offset="1" stop-color="#313681"/>
</linearGradient>
</defs>
</svg>
