<svg width="20" height="20" viewBox="0 0 20 20" fill="none" xmlns="http://www.w3.org/2000/svg">
<path fill-rule="evenodd" clip-rule="evenodd" d="M0 3C0 2.44772 0.497461 2 1.11111 2H18.8889C19.5025 2 20 2.44772 20 3C20 3.55228 19.5025 4 18.8889 4H1.11111C0.497461 4 0 3.55228 0 3Z" fill="url(#paint0_linear_27_126)"/>
<path fill-rule="evenodd" clip-rule="evenodd" d="M0 10C0 9.44772 0.497461 9 1.11111 9H18.8889C19.5025 9 20 9.44772 20 10C20 10.5523 19.5025 11 18.8889 11H1.11111C0.497461 11 0 10.5523 0 10Z" fill="url(#paint0_linear_27_126)"/>
<path fill-rule="evenodd" clip-rule="evenodd" d="M0 17C0 16.4477 0.497461 16 1.11111 16H18.8889C19.5025 16 20 16.4477 20 17C20 17.5523 19.5025 18 18.8889 18H1.11111C0.497461 18 0 17.5523 0 17Z" fill="url(#paint0_linear_27_126)"/>
<defs>
<linearGradient id="paint0_linear_27_126" x1="0" y1="15.2727" x2="30" y2="15.2727" gradientUnits="userSpaceOnUse">
<stop stop-color="#9945B7"/>
<stop offset="1" stop-color="#313681"/>
</linearGradient>
</defs>
</svg>
