<svg width="46" height="46" viewBox="0 0 46 46" fill="none" xmlns="http://www.w3.org/2000/svg">
<path d="M20 31L28 23L20 15" stroke="url(#paint0_linear_219_503)" stroke-width="1" stroke-linecap="round"/>
<path d="M23 2C11.402 2 2 11.402 2 23H-2C-2 9.19288 9.19288 -2 23 -2V2ZM44 23C44 11.402 34.598 2 23 2V-2C36.8071 -2 48 9.19288 48 23H44ZM23 44C34.598 44 44 34.598 44 23H48C48 36.8071 36.8071 48 23 48V44ZM23 48C9.19288 48 -2 36.8071 -2 23H2C2 34.598 11.402 44 23 44V48Z" fill="url(#paint1_linear_219_503)"/>
<defs>
<linearGradient id="paint0_linear_219_503" x1="20" y1="22.8545" x2="28" y2="22.8545" gradientUnits="userSpaceOnUse">
<stop stop-color="#9945B7"/>
<stop offset="1" stop-color="#313681"/>
</linearGradient>
<linearGradient id="paint1_linear_219_503" x1="0" y1="22.5818" x2="46" y2="22.5818" gradientUnits="userSpaceOnUse">
<stop stop-color="#9945B7"/>
<stop offset="1" stop-color="#313681"/>
</linearGradient>
</defs>
</svg>
