<svg width="202" height="20" viewBox="0 0 202 20" fill="none" xmlns="http://www.w3.org/2000/svg">
<path d="M23.9202 0.353504L15.6722 19.6975H10.2909L6.23205 4.2601C5.98562 3.30925 5.77136 2.96091 5.02193 2.56032C3.79835 1.90782 1.77777 1.29564 0 0.915689L0.120749 0.353504H8.78288C9.88701 0.353504 10.8796 1.07599 11.1303 2.32583L13.2739 13.5192L18.5718 0.353181H23.9202V0.353504ZM45.0047 13.3818C45.0264 8.27635 37.8228 7.9951 37.8723 5.71442C37.8877 5.02032 38.5601 4.28235 40.0317 4.09399C40.7611 4.00013 42.7709 3.92853 45.0503 4.95968L45.9445 0.85763C44.7196 0.42059 43.1436 0 41.1828 0C36.151 0 32.6099 2.62934 32.58 6.39434C32.5475 9.17914 35.1075 10.7331 37.0363 11.6585C39.0204 12.6061 39.6862 13.2151 39.6786 14.0627C39.6645 15.3603 38.0961 15.9331 36.6304 15.9557C34.0717 15.9944 32.5869 15.2751 31.4034 14.7342L30.4807 18.9721C31.6701 19.5085 33.8656 19.9765 36.1418 20C41.4899 20 44.9883 17.4032 45.0047 13.3818ZM58.2918 19.6975H63L58.8903 0.353504H54.5446C53.5674 0.353504 52.7432 0.912786 52.3783 1.77268L44.7393 19.6975H50.0847L51.1459 16.8082H57.6772L58.2918 19.6975ZM52.6116 12.8435L55.2911 5.58057L56.8332 12.8435H52.6116ZM31.1937 0.353504L26.9842 19.6975H21.8937L26.1048 0.353504H31.1937Z" fill="white"/>
<path d="M97.5 2.14167C97.3686 2.24306 97.24 2.3475 97.1142 2.455C94.9653 4.28833 93.6051 6.9875 93.6051 9.99972C93.6051 13.0122 94.9653 15.7114 97.1142 17.5447C97.24 17.6522 97.3686 17.7567 97.5 17.8581C97.6314 17.7567 97.76 17.6522 97.8858 17.5447C100.035 15.7114 101.395 13.0122 101.395 9.99972C101.395 6.9875 100.035 4.28833 97.8858 2.455C97.76 2.3475 97.6314 2.24306 97.5 2.14167ZM103.802 0C101.714 0 99.7735 0.615555 98.1572 1.67111C98.2399 1.73778 98.3235 1.80306 98.4036 1.87139C100.806 3.92111 102.184 6.88361 102.184 9.99972C102.184 13.1161 100.806 16.0786 98.4039 18.1283C98.324 18.1964 98.2399 18.2619 98.1572 18.3286C99.7735 19.3842 101.714 19.9997 103.802 19.9997C109.434 19.9997 114 15.5228 114 10C114 4.47694 109.434 0 103.802 0ZM96.5964 18.1283C96.676 18.1964 96.7601 18.2619 96.8428 18.3286C95.2265 19.3842 93.2853 20 91.1976 20C85.5654 20 81 15.5228 81 10C81 4.47722 85.5654 0 91.1976 0C93.2853 0 95.2262 0.615555 96.8428 1.67111C96.7601 1.73778 96.6765 1.80306 96.5964 1.87111C94.194 3.92111 92.8162 6.88361 92.8162 9.99972C92.8162 13.1161 94.194 16.0789 96.5964 18.1283ZM113.68 16.1964V15.8083H113.577L113.458 16.0753L113.339 15.8083H113.236V16.1964H113.309V15.9036L113.42 16.1561H113.496L113.608 15.9031V16.1964H113.68ZM113.026 16.1964V15.8747H113.158V15.8089H112.821V15.8747H112.954V16.1964H113.026Z" fill="white"/>
<g clip-path="url(#clip0_73_822)">
<path d="M147.311 2.625L144.712 11.8125H144.267L141.668 2.625C141.223 1.07031 139.828 0 138.233 0H132V20H138.241V8.17968H138.686L142.259 20H146.721L150.286 8.17968H150.731V20H156.972V0H150.738C149.151 0 147.756 1.07031 147.311 2.625ZM181.866 20H188.146V14.0859H194.463C197.768 14.0859 200.582 12.1797 201.67 9.5H181.866V20ZM170.742 2.10938L166.348 11.8203H165.904V0H159.663V20H164.961C166.356 20 167.621 19.1719 168.204 17.8906L172.597 8.1875H173.042V20H179.283V0H173.985C172.589 0 171.324 0.828125 170.742 2.10938Z" fill="white"/>
<path d="M195.084 0C196.886 0 198.519 0.703125 199.754 1.85938C201.134 3.14063 202 4.98439 202 7.03907C202 7.46093 201.954 7.875 201.885 8.28125H190.292C186.367 8.28125 183.039 5.65625 181.92 2.03125C181.905 1.99219 181.897 1.94531 181.882 1.89844C181.851 1.78906 181.828 1.67188 181.797 1.5625C181.682 1.05469 181.606 0.539061 181.575 0H195.084Z" fill="white"/>
</g>
<defs>
<clipPath id="clip0_73_822">
<rect width="70" height="20" fill="white" transform="translate(132)"/>
</clipPath>
</defs>
</svg>
