<svg width="30" height="30" viewBox="0 0 30 30" fill="none" xmlns="http://www.w3.org/2000/svg">
<g clip-path="url(#clip0_70_768)">
<path d="M26.5548 22.6344L22.1789 18.2585C21.268 17.3477 19.7912 17.3466 18.8793 18.2585L17.6048 19.5329C14.693 17.7546 12.2466 15.3082 10.4682 12.3963L11.8656 10.999C12.7752 10.0893 12.7752 8.609 11.8655 7.69928L7.48963 3.32338C6.58131 2.41517 5.10656 2.40674 4.18722 3.32613L1.43742 6.09732C0.121756 7.20205 -0.341018 9.01588 0.258982 10.735C3.33785 19.5578 10.4434 26.6633 19.2662 29.7422C20.9262 30.3213 22.6308 29.8882 23.7146 28.7716C23.7302 28.7578 23.7455 28.7435 23.7605 28.7285L26.5548 25.9341C27.4645 25.0244 27.4645 23.5442 26.5548 22.6344ZM25.1609 24.5401L22.4297 27.2713C22.3963 27.2989 22.3648 27.329 22.3352 27.3612C21.7603 27.9861 20.8355 28.2019 19.9158 27.8808C11.6554 24.9983 5.00297 18.3458 2.12039 10.0853C1.79033 9.13951 2.02845 8.15965 2.72707 7.58889C2.75361 7.56721 2.77904 7.54412 2.80318 7.5198L5.58398 4.71732C5.67615 4.6251 5.7839 4.61133 5.83986 4.61133C5.89588 4.61133 6.00351 4.62504 6.09574 4.71732L10.4715 9.09322C10.6126 9.23432 10.6126 9.46383 10.4716 9.60492L8.53547 11.541C8.22252 11.8539 8.15648 12.3369 8.37387 12.7223C10.4749 16.4471 13.5541 19.5264 17.2788 21.6272C17.6642 21.8447 18.1472 21.7785 18.4601 21.4657L20.2733 19.6525C20.4145 19.5114 20.6436 19.5112 20.785 19.6525L25.1609 24.0284C25.3019 24.1695 25.3019 24.3991 25.1609 24.5401Z" fill="white"/>
<path d="M15.756 7.69531C15.2116 7.69531 14.7703 8.13664 14.7703 8.68104C14.7703 9.22543 15.2115 9.66676 15.756 9.66676C18.2806 9.66676 20.3344 11.7206 20.3344 14.2452C20.3344 14.7896 20.7758 15.2309 21.3202 15.2309C21.8646 15.2309 22.3059 14.7896 22.3059 14.2452C22.3059 10.6336 19.3676 7.69531 15.756 7.69531Z" fill="white"/>
<path d="M15.756 3.82642C15.2116 3.82642 14.7703 4.26774 14.7703 4.81214C14.7703 5.35653 15.2115 5.79786 15.756 5.79786C20.4138 5.79786 24.2033 9.5873 24.2033 14.2451C24.2033 14.7895 24.6446 15.2309 25.189 15.2309C25.7334 15.2309 26.1747 14.7895 26.1747 14.2451C26.1747 8.50026 21.5009 3.82642 15.756 3.82642Z" fill="white"/>
<path d="M25.828 4.17315C23.1377 1.48282 19.5606 0.0012207 15.7559 0.0012207C15.2115 0.0012207 14.7701 0.442549 14.7701 0.986943C14.7701 1.53134 15.2115 1.97267 15.7559 1.97267C22.5231 1.97267 28.0286 7.47814 28.0286 14.2453C28.0286 14.7897 28.4699 15.231 29.0143 15.231C29.5587 15.231 30 14.7897 30 14.2453C29.9999 10.4405 28.5183 6.86355 25.828 4.17315Z" fill="white"/>
</g>
<defs>
<clipPath id="clip0_70_768">
<rect width="30" height="30" fill="white"/>
</clipPath>
</defs>
</svg>
