<svg width="30" height="30" viewBox="0 0 30 30" fill="none" xmlns="http://www.w3.org/2000/svg">
<g clip-path="url(#clip0_27_172)">
<path d="M26.5548 22.6344L22.1789 18.2584C21.268 17.3476 19.7912 17.3466 18.8793 18.2584L17.6048 19.5328C14.693 17.7545 12.2466 15.3081 10.4682 12.3962L11.8656 10.9989C12.7752 10.0892 12.7752 8.60894 11.8655 7.69922L7.48963 3.32332C6.58131 2.41511 5.10656 2.40668 4.18722 3.32607L1.43742 6.09726C0.121756 7.20199 -0.341018 9.01582 0.258982 10.7349C3.33785 19.5578 10.4434 26.6633 19.2662 29.7421C20.9262 30.3213 22.6308 29.8881 23.7146 28.7715C23.7302 28.7577 23.7455 28.7434 23.7605 28.7284L26.5548 25.934C27.4645 25.0243 27.4645 23.5441 26.5548 22.6344ZM25.1609 24.5401L22.4297 27.2712C22.3963 27.2989 22.3648 27.3289 22.3352 27.3612C21.7603 27.9861 20.8355 28.2018 19.9158 27.8807C11.6554 24.9982 5.00297 18.3457 2.12039 10.0852C1.79033 9.13945 2.02845 8.15959 2.72707 7.58883C2.75361 7.56715 2.77904 7.54406 2.80318 7.51974L5.58398 4.71726C5.67615 4.62504 5.7839 4.61127 5.83986 4.61127C5.89588 4.61127 6.00351 4.62498 6.09574 4.71726L10.4715 9.09316C10.6126 9.23426 10.6126 9.46377 10.4716 9.60486L8.53547 11.541C8.22252 11.8539 8.15648 12.3369 8.37387 12.7223C10.4749 16.447 13.5541 19.5263 17.2788 21.6272C17.6642 21.8446 18.1472 21.7785 18.4601 21.4656L20.2733 19.6525C20.4145 19.5113 20.6436 19.5111 20.785 19.6525L25.1609 24.0284C25.3019 24.1695 25.3019 24.399 25.1609 24.5401Z" fill="url(#paint0_linear_27_172)"/>
<path d="M15.756 7.69525C15.2116 7.69525 14.7703 8.13658 14.7703 8.68097C14.7703 9.22537 15.2115 9.6667 15.756 9.6667C18.2806 9.6667 20.3344 11.7206 20.3344 14.2452C20.3344 14.7895 20.7758 15.2309 21.3202 15.2309C21.8646 15.2309 22.3059 14.7895 22.3059 14.2452C22.3059 10.6336 19.3676 7.69525 15.756 7.69525Z" fill="url(#paint1_linear_27_172)"/>
<path d="M15.756 3.82642C15.2116 3.82642 14.7703 4.26774 14.7703 4.81214C14.7703 5.35653 15.2115 5.79786 15.756 5.79786C20.4138 5.79786 24.2033 9.5873 24.2033 14.2451C24.2033 14.7895 24.6446 15.2309 25.189 15.2309C25.7334 15.2309 26.1747 14.7895 26.1747 14.2451C26.1747 8.50026 21.5009 3.82642 15.756 3.82642Z" fill="url(#paint2_linear_27_172)"/>
<path d="M25.828 4.17303C23.1377 1.4827 19.5606 0.00109863 15.7559 0.00109863C15.2115 0.00109863 14.7701 0.442427 14.7701 0.986821C14.7701 1.53122 15.2115 1.97254 15.7559 1.97254C22.5231 1.97254 28.0286 7.47801 28.0286 14.2452C28.0286 14.7896 28.4699 15.2309 29.0143 15.2309C29.5587 15.2309 30 14.7896 30 14.2452C29.9999 10.4404 28.5183 6.86342 25.828 4.17303Z" fill="url(#paint3_linear_27_172)"/>
</g>
<defs>
<linearGradient id="paint0_linear_27_172" x1="0" y1="16.5679" x2="27.2371" y2="16.5679" gradientUnits="userSpaceOnUse">
<stop stop-color="#9945B7"/>
<stop offset="1" stop-color="#313681"/>
</linearGradient>
<linearGradient id="paint1_linear_27_172" x1="14.7703" y1="11.5316" x2="22.3059" y2="11.5316" gradientUnits="userSpaceOnUse">
<stop stop-color="#9945B7"/>
<stop offset="1" stop-color="#313681"/>
</linearGradient>
<linearGradient id="paint2_linear_27_172" x1="14.7703" y1="9.63232" x2="26.1747" y2="9.63232" gradientUnits="userSpaceOnUse">
<stop stop-color="#9945B7"/>
<stop offset="1" stop-color="#313681"/>
</linearGradient>
<linearGradient id="paint3_linear_27_172" x1="14.7701" y1="7.75445" x2="30" y2="7.75445" gradientUnits="userSpaceOnUse">
<stop stop-color="#9945B7"/>
<stop offset="1" stop-color="#313681"/>
</linearGradient>
<clipPath id="clip0_27_172">
<rect width="30" height="30" fill="white"/>
</clipPath>
</defs>
</svg>
