<svg width="36" height="31" viewBox="0 0 36 31" fill="none" xmlns="http://www.w3.org/2000/svg">
<path d="M0.309456 28.2141C5.02006 23.8578 7.4957 19.3666 7.73639 14.7402C7.4957 14.7402 7.32378 14.7402 7.22063 14.7402C5.98281 14.7402 4.81375 14.4532 3.71347 13.8791C1.23782 12.5283 0 10.4684 0 7.69935C0 6.34858 0.34384 5.09913 1.03152 3.95098C2.51003 1.31699 4.72779 0 7.68481 0C9.91977 0 11.7937 0.759804 13.3066 2.27941C15.0602 3.96786 15.937 6.21351 15.937 9.01634C15.937 12.5621 14.957 16.1754 12.9971 19.8562C10.6934 24.2124 7.16905 27.927 2.42407 31L0.309456 28.2141ZM20.3725 28.2141C25.0831 23.8578 27.5587 19.3666 27.7994 14.7402C27.5587 14.7402 27.3868 14.7402 27.2837 14.7402C26.0458 14.7402 24.8768 14.4532 23.7765 13.8791C21.3009 12.5283 20.063 10.4684 20.063 7.69935C20.063 6.34858 20.4069 5.09913 21.0946 3.95098C22.5731 1.31699 24.7908 0 27.7479 0C29.9828 0 31.8567 0.759804 33.3696 2.27941C35.1232 3.96786 36 6.21351 36 9.01634C36 12.5621 35.0201 16.1754 33.0602 19.8562C30.7564 24.2124 27.2321 27.927 22.4871 31L20.3725 28.2141Z" fill="url(#paint0_linear_155_2757)"/>
<defs>
<linearGradient id="paint0_linear_155_2757" x1="0" y1="15.7818" x2="36" y2="15.7818" gradientUnits="userSpaceOnUse">
<stop stop-color="#9945B7"/>
<stop offset="1" stop-color="#313681"/>
</linearGradient>
</defs>
</svg>
