<svg width="88" height="88" viewBox="0 0 88 88" fill="none" xmlns="http://www.w3.org/2000/svg">
<path d="M38.1838 42.6037L31.9841 36.4041C30.3588 34.7786 28.1543 33.8654 25.8557 33.8654C23.557 33.8653 21.3525 34.7784 19.7271 36.4037C18.1016 38.0291 17.1884 40.2336 17.1884 42.5322C17.1883 44.8309 18.1014 47.0354 19.7267 48.6608L32.8013 61.7371C33.606 62.5421 34.5615 63.1807 35.6131 63.6164C36.6646 64.0521 37.7918 64.2763 38.93 64.2763C40.0683 64.2763 41.1954 64.0521 42.247 63.6164C43.2986 63.1807 44.254 62.5421 45.0588 61.7371L82.024 24.7709C83.6494 23.1455 84.5626 20.9409 84.5626 18.6422C84.5626 16.3435 83.6494 14.1389 82.024 12.5135C80.3985 10.888 78.194 9.97485 75.8953 9.97485C73.5965 9.97485 71.392 10.888 69.7665 12.5135L39.6763 42.6037C39.478 42.8008 39.2097 42.9114 38.93 42.9114C38.6504 42.9114 38.3821 42.8008 38.1838 42.6037ZM71.7115 14.4574C72.8227 13.3545 74.3258 12.7369 75.8914 12.7399C77.4571 12.7429 78.9577 13.3662 80.0648 14.4733C81.1718 15.5805 81.795 17.0812 81.7979 18.6468C81.8007 20.2125 81.183 21.7155 80.08 22.8266L43.1138 59.7926C42.5643 60.3421 41.912 60.7781 41.194 61.0755C40.476 61.3729 39.7065 61.526 38.9293 61.526C38.1522 61.526 37.3827 61.3729 36.6647 61.0755C35.9467 60.7781 35.2944 60.3421 34.7449 59.7926L21.6704 46.7163C20.5639 45.6059 19.9433 44.1017 19.9447 42.5341C19.9462 40.9665 20.5696 39.4636 21.6781 38.3552C22.7866 37.2467 24.2896 36.6234 25.8572 36.6221C27.4248 36.6208 28.9288 37.2415 30.0392 38.348L36.2388 44.5476C36.953 45.2603 37.9208 45.6605 38.9297 45.6605C39.9386 45.6605 40.9063 45.2603 41.6206 44.5476L71.7115 14.4574Z" fill="#5D3589"/>
<path d="M84.8934 38.6558C84.8688 38.4769 84.8091 38.3046 84.7178 38.1488C84.6265 37.993 84.5055 37.8567 84.3615 37.7476C84.2176 37.6386 84.0536 37.559 83.8789 37.5133C83.7041 37.4677 83.5221 37.4569 83.3433 37.4816C82.982 37.5314 82.6553 37.7227 82.4351 38.0135C82.326 38.1574 82.2464 38.3214 82.2008 38.4961C82.1551 38.6709 82.1443 38.8528 82.169 39.0317C82.3924 40.6784 82.503 42.3383 82.5 44C82.4945 52.2828 79.8163 60.3427 74.8635 66.9815C69.9107 73.6203 62.9477 78.4835 55.0097 80.8483C47.0717 83.213 38.5824 82.953 30.804 80.1068C23.0257 77.2606 16.3734 71.9803 11.8362 65.0508C7.29899 58.1213 5.11912 49.9126 5.62063 41.6451C6.12214 33.3775 9.27825 25.4925 14.6198 19.1623C19.9613 12.832 27.2031 8.39449 35.2685 6.50941C43.3339 4.62433 51.7922 5.39233 59.3862 8.69924C59.7204 8.84524 60.099 8.85248 60.4385 8.71939C60.7781 8.58629 61.0509 8.32376 61.1969 7.98953C61.3429 7.65531 61.3501 7.27678 61.217 6.93721C61.0839 6.59765 60.8214 6.32486 60.4872 6.17886C52.3447 2.6276 43.2733 1.79941 34.6224 3.81744C25.9714 5.83547 18.2028 10.5919 12.472 17.3795C6.74122 24.167 3.35434 32.6229 2.81507 41.4898C2.2758 50.3567 4.61294 59.1608 9.47892 66.5928C14.3449 74.0248 21.4798 79.6877 29.8224 82.7392C38.1651 85.7908 47.2699 86.068 55.7828 83.5297C64.2957 80.9914 71.7619 75.7732 77.0711 68.651C82.3802 61.5289 85.2487 52.8833 85.25 44C85.2529 42.2126 85.1338 40.427 84.8934 38.6558Z" fill="#5D3589"/>
</svg>
